<svg width="301" height="150" viewBox="0 0 301 150" fill="none" xmlns="http://www.w3.org/2000/svg">
<g clip-path="url(#clip0_99_234)">
<path d="M225.821 99.975H187.307V27.1563L157.659 6.63615V99.3979H154.171V0L190.796 25.3501V96.5127H225.821V99.975Z" fill="url(#paint0_linear_99_234)"/>
<path d="M113.041 99.975H74.5277V96.5126H109.553V40.2266L146.178 65.894V99.3979H142.69V67.6887L113.041 46.9089V99.975Z" fill="url(#paint1_linear_99_234)"/>
<path d="M167.542 99.398H164.054V45.6221L134.406 25.102V99.398H130.918V18.4658L167.542 43.8159V99.398Z" fill="url(#paint2_linear_99_234)"/>
<path d="M7.59229 128.51H3.42409C1.03478 128.51 0 127.512 0 125.21C0 122.907 1.11617 121.886 3.45897 121.886H6.90631V126.779H7.59229V128.51ZM4.88325 126.779V123.605H3.45897C2.40674 123.605 2.01725 124.05 2.01725 125.192C2.01725 126.335 2.40674 126.779 3.45897 126.779H4.88325ZM4.17983 120.968H2.14514V119.237H4.17983V120.968ZM6.88887 120.968H4.84837V119.237H6.88887V120.968Z" fill="#1E3460"/>
<path d="M9.36536 128.51H7.49927V126.779H9.36536V128.51Z" fill="#1E3460"/>
<path d="M11.2198 126.779L11.1326 126.664C10.7946 126.232 10.5872 125.713 10.5347 125.169C10.4822 124.624 10.5867 124.076 10.8362 123.588C11.1001 123.07 11.508 122.637 12.0118 122.342C12.5156 122.046 13.0941 121.9 13.6789 121.92C16.1961 121.92 17.3297 123.652 17.3297 125.215C17.3297 126.779 16.167 128.51 13.6208 128.51H9.36537C9.23747 128.51 9.17352 128.395 9.17352 128.176V127.108C9.17352 126.883 9.23747 126.779 9.36537 126.779H11.2198ZM15.3241 125.215C15.2924 124.937 15.1701 124.677 14.9759 124.474C14.7816 124.271 14.5259 124.136 14.2477 124.091C13.9694 124.045 13.6836 124.09 13.4338 124.22C13.184 124.35 12.9838 124.558 12.8634 124.811C12.7431 125.064 12.7092 125.35 12.767 125.624C12.8248 125.898 12.9711 126.146 13.1836 126.33C13.3961 126.514 13.6634 126.624 13.9448 126.644C14.2261 126.663 14.5063 126.591 14.7428 126.439C14.9312 126.296 15.0823 126.11 15.1834 125.897C15.2846 125.684 15.3328 125.451 15.3241 125.215Z" fill="#1E3460"/>
<path d="M22.1258 128.51H21.62C19.2016 128.51 18.2076 127.327 18.2076 124.471V119.249H20.2539V124.586C20.2539 126.358 20.8352 126.779 21.5968 126.779H22.1083L22.1258 128.51Z" fill="#1E3460"/>
<path d="M23.8988 128.51H22.0327V126.779H23.8988V128.51Z" fill="#1E3460"/>
<path d="M25.6894 128.51H23.8233V126.779H25.6894V128.51Z" fill="#1E3460"/>
<path d="M27.4334 128.51H25.5731V126.779H27.4334V128.51Z" fill="#1E3460"/>
<path d="M35.2756 128.51H27.4334C27.3113 128.51 27.2532 128.395 27.2532 128.176V127.108C27.2532 126.883 27.3113 126.779 27.4334 126.779H28.91L28.8286 126.664C28.4366 126.172 28.2309 125.56 28.2473 124.933V124.846C28.2465 124.524 28.3103 124.205 28.4351 123.908C28.5598 123.611 28.743 123.341 28.9739 123.115C29.3361 122.771 29.7652 122.503 30.2349 122.328C30.7046 122.154 31.2052 122.076 31.7062 122.099H34.6129V123.831H32.1539C30.8749 123.831 30.2703 124.315 30.2703 125.083C30.2703 126.306 30.8226 126.733 32.1539 126.733H35.2466L35.2756 128.51Z" fill="#1E3460"/>
<path d="M35.2757 128.51V126.779H35.7872C36.5139 126.779 37.1301 126.358 37.1301 124.586V119.26H39.1706V124.454C39.1706 127.304 38.1765 128.493 35.764 128.493L35.2757 128.51Z" fill="#1E3460"/>
<path d="M42.1064 128.51H40.0775V119.277H42.1064V128.51Z" fill="#1E3460"/>
<path d="M62.1975 126.433C62.1975 127.789 61.5522 128.51 60.3198 128.51H51.6694C50.5068 128.51 47.8268 128.199 47.8268 125.175C47.8245 124.771 47.9029 124.37 48.0574 123.997C48.2119 123.623 48.4395 123.283 48.7271 122.997C49.0147 122.711 49.3565 122.485 49.7328 122.33C50.1091 122.176 50.5124 122.098 50.9195 122.099V123.83C50.5987 123.835 50.2922 123.963 50.0654 124.189C49.8385 124.414 49.709 124.718 49.7045 125.037C49.6955 125.252 49.734 125.467 49.8173 125.667C49.9007 125.866 50.0268 126.045 50.187 126.191C50.3854 126.374 50.6187 126.517 50.8732 126.61C51.1277 126.703 51.3984 126.745 51.6694 126.733H59.4768C60.1221 126.733 60.1977 126.248 60.1977 125.81V122.099H62.1975V126.433ZM55.1051 123.877H53.0646V122.146H55.1051V123.877ZM57.8084 123.877H55.7737V122.146H57.8084V123.877Z" fill="#1E3460"/>
<path d="M71.2606 124.477C71.2606 127.327 70.2607 128.516 67.8423 128.516H63.0637V126.785H65.389V119.249H67.4295V126.779H67.8946C68.6213 126.779 69.2259 126.358 69.2259 124.586V119.249H71.278L71.2606 124.477Z" fill="#1E3460"/>
<path d="M79.1144 128.568C79.1144 130.478 77.9053 131.413 75.3299 131.413H73.0046V129.682H74.3475C76.0915 129.682 77.0914 129.722 77.0914 128.58V128.505H75.638C73.2255 128.505 72.2023 127.506 72.2023 125.204C72.2023 122.994 73.365 121.88 75.6904 121.88C78.0157 121.88 79.1377 122.936 79.1377 125.204V128.562L79.1144 128.568ZM77.0914 126.779V125.21C77.0914 124.056 76.7135 123.605 75.6671 123.605C74.6207 123.605 74.2312 124.05 74.2312 125.21C74.2312 126.37 74.6207 126.779 75.6671 126.779H77.0914Z" fill="#1E3460"/>
<path d="M83.9105 128.51H83.4222C81.0038 128.51 80.0097 127.327 80.0097 124.471V119.249H82.0793V124.586C82.0793 126.358 82.6955 126.779 83.4222 126.779H83.9337L83.9105 128.51Z" fill="#1E3460"/>
<path d="M85.6836 128.51H83.8233V126.779H85.6894L85.6836 128.51Z" fill="#1E3460"/>
<path d="M87.4567 128.51H85.5673V126.779H87.4334L87.4567 128.51Z" fill="#1E3460"/>
<path d="M89.2239 128.51H87.3636V126.779H89.2239V128.51Z" fill="#1E3460"/>
<path d="M98.3568 128.51H89.2239C89.1019 128.51 89.0379 128.407 89.0379 128.182V127.114C89.0379 126.895 89.1019 126.779 89.2239 126.779H90.6656C90.4688 126.224 90.3801 125.636 90.4041 125.048C90.4041 122.74 91.5202 121.482 93.863 121.482C96.2058 121.482 97.351 122.682 97.351 125.048C97.3718 125.636 97.2851 126.222 97.0953 126.779H98.3568V128.51ZM93.5491 120.968H91.5086V119.237H93.5491V120.968ZM94.0781 126.779C94.9734 126.71 95.3454 126.202 95.3454 125.048C95.3454 123.79 94.9385 123.19 93.8863 123.19C92.834 123.19 92.4445 123.767 92.4445 125.048C92.4445 126.202 92.7875 126.698 93.6712 126.779H94.0781ZM96.2523 120.968H94.2176V119.237H96.2523V120.968Z" fill="#1E3460"/>
<path d="M106.926 128.51H105.943C105.624 128.979 105.193 129.363 104.69 129.629C104.186 129.894 103.624 130.033 103.054 130.033C102.484 130.033 101.922 129.894 101.418 129.629C100.915 129.363 100.484 128.979 100.165 128.51H98.3568C98.2289 128.51 98.1707 128.395 98.1707 128.176V127.108C98.1707 126.883 98.2289 126.779 98.3568 126.779H99.6706C99.6706 125.881 100.03 125.019 100.67 124.384C101.31 123.749 102.178 123.392 103.083 123.392C103.988 123.392 104.856 123.749 105.496 124.384C106.136 125.019 106.496 125.881 106.496 126.779H106.955L106.926 128.51ZM104.461 126.779C104.473 126.591 104.446 126.402 104.382 126.225C104.318 126.047 104.218 125.885 104.088 125.747C103.958 125.609 103.801 125.5 103.627 125.425C103.452 125.35 103.264 125.311 103.074 125.311C102.884 125.311 102.696 125.35 102.522 125.425C102.348 125.5 102.191 125.609 102.061 125.747C101.931 125.885 101.831 126.047 101.766 126.225C101.702 126.402 101.676 126.591 101.688 126.779C101.683 127.019 101.737 127.256 101.845 127.47C101.954 127.685 102.113 127.869 102.31 128.008C102.541 128.146 102.809 128.21 103.077 128.193C103.421 128.207 103.757 128.096 104.025 127.881C104.169 127.734 104.282 127.56 104.356 127.368C104.431 127.177 104.467 126.973 104.461 126.768V126.779Z" fill="#1E3460"/>
<path d="M111.571 128.51H106.92C106.798 128.51 106.734 128.407 106.734 128.182V127.114C106.734 126.895 106.798 126.779 106.92 126.779H108.821V119.277H110.856V126.779H111.582L111.571 128.51Z" fill="#1E3460"/>
<path d="M111.571 128.51V126.779H112.088C112.815 126.779 113.425 126.358 113.425 124.586V119.26H115.471V124.454C115.471 127.304 114.477 128.493 112.059 128.493L111.571 128.51Z" fill="#1E3460"/>
<path d="M133.725 124.529C133.173 123.779 132.313 123.144 131.749 123.184C131.185 123.225 131.016 123.929 131.557 124.413C131.749 124.598 132.284 125.117 132.656 125.567C134.4 127.397 133.237 128.539 131.633 128.539H124.378C123.92 128.55 123.464 128.474 123.035 128.314C122.663 128.182 122.327 127.967 122.052 127.685C121.759 127.378 121.532 127.015 121.384 126.618C121.236 126.222 121.171 125.799 121.192 125.377C121.177 124.47 121.522 123.594 122.151 122.936C122.45 122.64 122.809 122.41 123.203 122.261C123.619 122.082 124.064 121.98 124.517 121.961C125.056 121.967 125.587 122.087 126.075 122.313L125.296 123.825C125.088 123.701 124.847 123.643 124.604 123.657C122.634 123.657 122.529 126.768 124.784 126.768H130.115C131.33 126.768 130.912 126.364 130.208 125.614C128.511 123.882 129.406 121.805 131.057 121.413C131.523 121.305 132.008 121.31 132.472 121.425C132.936 121.54 133.366 121.764 133.725 122.076V124.529ZM127.912 131.413H125.866V129.682H127.912V131.413ZM130.61 131.413H128.581V129.682H130.61V131.413Z" fill="#1E3460"/>
<path d="M138.556 128.51C138.132 129.942 137.126 130.94 135.022 130.94H133.894V129.209H134.086C135.83 129.209 136.777 128.845 136.777 126.456V122.169H138.812V126.456C138.812 126.577 138.812 126.675 138.812 126.802H140.085V128.534L138.556 128.51Z" fill="#1E3460"/>
<path d="M141.853 128.51H139.986V126.779H141.853V128.51Z" fill="#1E3460"/>
<path d="M143.626 128.51H141.76V126.779H143.626V128.51Z" fill="#1E3460"/>
<path d="M145.393 128.51H143.533V126.779H145.393V128.51Z" fill="#1E3460"/>
<path d="M158.479 128.51H145.393C145.271 128.51 145.207 128.395 145.207 128.176V127.108C145.207 126.883 145.271 126.779 145.393 126.779H147.032V122.163H149.073V123.04C149.114 122.734 150.125 122.163 151.067 122.163H154.625C156.781 122.163 157.903 123.317 157.903 125.441V126.797H158.485L158.479 128.51ZM155.886 126.779V125.423C155.886 124.477 155.386 123.894 154.625 123.894H150.927C149.352 123.894 149.055 125.019 149.055 126.11V126.779H155.886Z" fill="#1E3460"/>
<path d="M166.31 128.51H158.479C158.351 128.51 158.293 128.395 158.293 128.176V127.108C158.293 126.883 158.351 126.779 158.479 126.779H159.979L159.897 126.664C159.505 126.172 159.3 125.559 159.316 124.933V124.846C159.315 124.524 159.379 124.205 159.504 123.908C159.629 123.611 159.812 123.341 160.043 123.115C160.406 122.77 160.836 122.503 161.307 122.328C161.777 122.153 162.279 122.076 162.781 122.099H165.687V123.83H163.228C161.944 123.83 161.339 124.315 161.339 125.083C161.339 126.306 161.891 126.733 163.228 126.733H166.315L166.31 128.51Z" fill="#1E3460"/>
<path d="M166.31 128.51V126.779H166.821C167.554 126.779 168.164 126.358 168.164 124.586V119.26H170.21V124.454C170.21 127.304 169.216 128.493 166.798 128.493L166.31 128.51Z" fill="#1E3460"/>
<path d="M173.14 128.51H171.117V119.277H173.14V128.51Z" fill="#1E3460"/>
<path d="M188.929 128.51H187.342C186.893 129.148 186.29 129.665 185.588 130.013C184.887 130.362 184.109 130.532 183.325 130.507C180.564 130.507 178.861 128.741 178.861 126.145C178.861 123.894 180.576 122.249 182.93 122.146V123.877C182.358 123.919 181.822 124.17 181.424 124.581C181.027 124.992 180.798 125.535 180.779 126.104V126.237C180.782 126.563 180.853 126.886 180.986 127.185C181.118 127.483 181.311 127.752 181.552 127.975C181.793 128.197 182.077 128.369 182.387 128.479C182.697 128.588 183.026 128.635 183.354 128.614C184.038 128.625 184.699 128.369 185.194 127.9C185.689 127.432 185.978 126.788 185.999 126.11V119.26H188.04V126.762H188.941L188.929 128.51Z" fill="#1E3460"/>
<path d="M190.703 128.51H188.836V126.779H190.703V128.51Z" fill="#1E3460"/>
<path d="M192.476 128.51H190.609V126.779H192.476V128.51Z" fill="#1E3460"/>
<path d="M194.243 128.51H192.383V126.779H194.243V128.51Z" fill="#1E3460"/>
<path d="M200.597 128.51H198.69V127.731C198.527 127.999 198.292 128.216 198.012 128.357C197.732 128.499 197.417 128.56 197.103 128.534H194.243C194.121 128.534 194.051 128.43 194.051 128.205V127.137C194.051 126.918 194.121 126.802 194.243 126.802H196.231C196.894 126.802 196.958 126.404 196.958 125.879V122.169H198.998V126.647C199.009 126.698 199.009 126.751 198.998 126.802H200.614L200.597 128.51ZM197.754 131.396H195.702V129.665H197.766L197.754 131.396ZM200.446 131.396H198.429V129.665H200.446V131.396Z" fill="#1E3460"/>
<path d="M211.427 128.51H200.585C200.463 128.51 200.393 128.395 200.393 128.176V127.108C200.393 126.883 200.463 126.779 200.585 126.779H201.533V126.168C201.508 125.745 201.572 125.322 201.72 124.924C201.868 124.527 202.097 124.165 202.393 123.859H201.231V122.128H207.009C209.701 122.128 211.433 123.352 211.433 126.168L211.427 128.51ZM205.474 126.779V126.572V123.877H205.358C204.195 124.096 203.562 124.846 203.562 126.127V126.762L205.474 126.779ZM209.387 126.779V126.144C209.446 125.609 209.29 125.073 208.952 124.651C208.615 124.23 208.123 123.958 207.585 123.894H207.503V126.779H209.387Z" fill="#1E3460"/>
<path d="M215.787 118.527H211.892V117.523H212.968C212.756 117.263 212.64 116.94 212.636 116.606C212.596 115.85 213.381 115.059 214.514 115.059H215.787V116.034H214.77C214.142 116.034 213.793 116.265 213.793 116.663C213.793 117.419 214.136 117.523 214.77 117.523H215.787V118.527ZM216.741 128.51H216.252C213.834 128.51 212.84 127.327 212.84 124.471V119.249H214.886V124.586C214.886 126.358 215.502 126.779 216.229 126.779H216.741V128.51Z" fill="#1E3460"/>
<path d="M218.491 128.51H216.63V126.779H218.491V128.51Z" fill="#1E3460"/>
<path d="M220.264 128.51H218.397V126.779H220.264V128.51Z" fill="#1E3460"/>
<path d="M222.037 128.51H220.171V126.779H222.037V128.51Z" fill="#1E3460"/>
<path d="M223.804 128.51H221.944V126.779H223.804V128.51Z" fill="#1E3460"/>
<path d="M229.455 128.51H227.472V127.731C227.311 128 227.076 128.218 226.796 128.36C226.515 128.502 226.199 128.562 225.885 128.534H223.804C223.682 128.534 223.618 128.43 223.618 128.205V127.137C223.618 126.918 223.682 126.802 223.804 126.802H225.013C225.676 126.802 225.746 126.404 225.746 125.879V122.169H227.78V126.647C227.791 126.698 227.791 126.751 227.78 126.802H229.472L229.455 128.51ZM226.432 120.968H224.391V119.237H226.432V120.968ZM229.146 120.968H227.112V119.237H229.158L229.146 120.968Z" fill="#1E3460"/>
<path d="M229.455 128.51V126.779H229.966C230.693 126.779 231.309 126.358 231.309 124.586V119.26H233.355V124.454C233.355 127.304 232.361 128.493 229.943 128.493L229.455 128.51Z" fill="#1E3460"/>
<path d="M236.285 128.51H234.256V119.277H236.285V128.51Z" fill="#1E3460"/>
<path d="M249.598 128.51H245.436C243.04 128.51 242.006 127.512 242.006 125.21C242.006 122.907 243.122 121.886 245.465 121.886H248.924V126.779H249.61L249.598 128.51ZM246.889 126.779V123.605H245.465C244.412 123.605 244.023 124.05 244.023 125.192C244.023 126.335 244.412 126.779 245.465 126.779H246.889ZM246.203 120.968H244.168V119.237H246.203V120.968ZM248.912 120.968H246.871V119.237H248.924L248.912 120.968Z" fill="#1E3460"/>
<path d="M251.371 128.51H249.505V126.779H251.371V128.51Z" fill="#1E3460"/>
<path d="M253.144 128.51H251.278V126.779H253.144V128.51Z" fill="#1E3460"/>
<path d="M254.911 128.51H253.051V126.779H254.911V128.51Z" fill="#1E3460"/>
<path d="M256.684 128.51H254.824V126.779H256.684V128.51Z" fill="#1E3460"/>
<path d="M270.05 128.51H268.689V127.933C268.355 128.235 267.958 128.459 267.526 128.591C266.952 128.759 266.348 128.805 265.755 128.724C265.162 128.644 264.593 128.439 264.085 128.124C263.829 128.327 263.54 128.485 263.23 128.591C262.664 128.777 262.06 128.815 261.475 128.703C260.89 128.591 260.343 128.332 259.888 127.951C259.457 128.337 258.893 128.543 258.312 128.528H256.655C256.533 128.528 256.464 128.424 256.464 128.199V127.126C256.464 126.9 256.533 126.797 256.655 126.797H257.336C257.504 126.802 257.671 126.771 257.826 126.706C257.981 126.641 258.12 126.544 258.233 126.42C258.347 126.297 258.432 126.151 258.482 125.991C258.533 125.832 258.548 125.664 258.527 125.498V122.163H260.562V125.516C260.543 125.742 260.587 125.97 260.69 126.174C260.792 126.377 260.949 126.549 261.143 126.67C261.322 126.763 261.522 126.811 261.725 126.808C261.928 126.804 262.128 126.751 262.306 126.652C262.505 126.534 262.668 126.364 262.778 126.161C262.887 125.957 262.939 125.728 262.928 125.498V122.163H264.951V125.516C264.933 125.742 264.977 125.97 265.08 126.173C265.182 126.377 265.339 126.548 265.533 126.67C265.713 126.76 265.912 126.807 266.114 126.808C266.318 126.804 266.517 126.751 266.695 126.652C266.894 126.533 267.056 126.363 267.164 126.16C267.273 125.957 267.324 125.728 267.311 125.498V122.163H269.346V126.779H269.968L270.05 128.51Z" fill="#1E3460"/>
<path d="M271.823 128.51H269.956V126.779H271.823V128.51Z" fill="#1E3460"/>
<path d="M284.571 126.064C284.563 126.623 284.378 127.166 284.042 127.615C283.706 128.064 283.236 128.398 282.699 128.568C282.125 128.736 281.521 128.782 280.928 128.701C280.335 128.62 279.766 128.416 279.258 128.101C279.001 128.302 278.712 128.459 278.403 128.568C277.835 128.75 277.23 128.787 276.643 128.675C276.057 128.563 275.509 128.306 275.049 127.928C274.624 128.315 274.062 128.523 273.485 128.505H271.817C271.695 128.505 271.631 128.401 271.631 128.176V127.102C271.631 126.877 271.695 126.773 271.817 126.773H272.509C272.674 126.775 272.838 126.741 272.99 126.674C273.141 126.607 273.277 126.509 273.387 126.386C273.497 126.263 273.579 126.118 273.628 125.961C273.677 125.804 273.692 125.638 273.671 125.475V122.14H275.706V125.492C275.688 125.719 275.732 125.947 275.834 126.15C275.937 126.353 276.094 126.525 276.287 126.647C276.467 126.739 276.666 126.787 276.869 126.787C277.071 126.787 277.27 126.739 277.45 126.647C277.648 126.528 277.811 126.357 277.919 126.154C278.028 125.951 278.078 125.722 278.066 125.492V122.157H280.089V125.51C280.07 125.737 280.114 125.964 280.217 126.168C280.319 126.371 280.476 126.543 280.671 126.664C280.851 126.755 281.05 126.802 281.252 126.802C281.456 126.799 281.655 126.745 281.833 126.647C282.025 126.523 282.18 126.351 282.283 126.148C282.385 125.945 282.43 125.719 282.415 125.492V122.157H284.455L284.571 126.064Z" fill="#1E3460"/>
<path d="M293.036 128.51H292.454V128.568C292.454 130.467 291.193 131.413 288.658 131.413H286.333V129.682H287.699C289.396 129.682 290.42 129.722 290.42 128.58V128.505H288.978C286.571 128.505 285.542 127.535 285.542 125.204C285.542 122.994 286.705 121.88 289.03 121.88C291.356 121.88 292.478 122.936 292.478 125.204V126.006V126.773H293.059L293.036 128.51ZM289.646 121.009H285.781V120.005H286.862C286.647 119.746 286.53 119.422 286.53 119.087C286.484 118.331 287.257 117.541 288.397 117.541H289.646V118.498H288.629C288.001 118.498 287.664 118.729 287.664 119.116C287.664 119.872 288.001 119.976 288.629 119.976H289.646V121.009ZM290.385 126.779V125.21C290.385 124.056 290.013 123.605 288.978 123.605C287.943 123.605 287.536 124.05 287.536 125.21C287.536 126.37 287.926 126.779 288.978 126.779H290.385Z" fill="#1E3460"/>
<path d="M294.89 126.779L294.809 126.664C294.47 126.232 294.261 125.714 294.208 125.17C294.154 124.625 294.258 124.077 294.506 123.588C294.771 123.07 295.179 122.638 295.683 122.343C296.186 122.047 296.765 121.901 297.349 121.92C299.866 121.92 301 123.652 301 125.215C301 126.779 299.837 128.51 297.291 128.51H293.036C292.914 128.51 292.844 128.395 292.844 128.176V127.108C292.844 126.883 292.914 126.779 293.036 126.779H294.89ZM298.994 125.215C298.963 124.937 298.84 124.677 298.646 124.474C298.452 124.271 298.196 124.136 297.918 124.091C297.64 124.045 297.354 124.09 297.104 124.22C296.854 124.35 296.654 124.558 296.534 124.811C296.413 125.064 296.38 125.35 296.437 125.624C296.495 125.898 296.641 126.146 296.854 126.33C297.066 126.514 297.334 126.624 297.615 126.644C297.896 126.663 298.177 126.591 298.413 126.439C298.601 126.296 298.753 126.11 298.854 125.897C298.955 125.684 299.003 125.451 298.994 125.215Z" fill="#1E3460"/>
<g clip-path="url(#clip1_99_234)">
<path d="M10.3061 147.177V139.862L7.72074 147.177H5.87903L3.29948 139.862L3.27043 139.888V147.177H1.42291V138.31H4.51372L6.79117 145.03H6.82022L9.09766 138.31H12.1769V147.177H10.3061Z" fill="url(#paint3_linear_99_234)"/>
<path d="M17.6326 147.327C17.143 147.356 16.6525 147.288 16.193 147.13C15.7336 146.971 15.3155 146.725 14.9662 146.406C14.6169 146.088 14.3442 145.706 14.1659 145.284C13.9877 144.861 13.9079 144.409 13.9317 143.957C13.9317 143.507 14.0276 143.062 14.2139 142.646C14.4002 142.231 14.6732 141.853 15.0174 141.535C15.3616 141.217 15.7702 140.965 16.2199 140.793C16.6696 140.621 17.1516 140.532 17.6384 140.532C18.1252 140.532 18.6072 140.621 19.0569 140.793C19.5066 140.965 19.9152 141.217 20.2594 141.535C20.6036 141.853 20.8766 142.231 21.0629 142.646C21.2492 143.062 21.345 143.507 21.345 143.957C21.3691 144.41 21.289 144.863 21.11 145.286C20.9311 145.709 20.6573 146.092 20.3067 146.411C19.9561 146.729 19.5366 146.975 19.0758 147.133C18.6149 147.291 18.1231 147.357 17.6326 147.327ZM19.422 143.747C19.422 142.749 18.841 141.81 17.6326 141.81C16.4241 141.81 15.8548 142.77 15.8548 143.747C15.8548 144.821 16.2266 146.018 17.6326 146.018C19.0386 146.018 19.422 144.837 19.422 143.747Z" fill="url(#paint4_linear_99_234)"/>
<path d="M27.6661 147.177V146.442C27.4044 146.738 27.0706 146.972 26.6919 147.126C26.3132 147.28 25.9005 147.349 25.4874 147.327C23.3204 147.327 22.5244 145.679 22.5244 143.892C22.5244 142.105 23.3262 140.5 25.4642 140.5C25.8705 140.481 26.2757 140.555 26.6443 140.714C27.013 140.873 27.3339 141.113 27.579 141.413H27.6138V137.656H29.4555V147.182L27.6661 147.177ZM27.5964 143.892C27.5964 142.969 27.1316 141.81 25.9522 141.81C24.7728 141.81 24.4243 143.012 24.4243 143.892C24.4243 144.772 24.7728 146.039 25.9755 146.039C27.1781 146.039 27.5964 144.794 27.5964 143.892Z" fill="url(#paint5_linear_99_234)"/>
<path d="M37.2 146.807C36.4557 147.18 35.618 147.365 34.7715 147.343C32.4476 147.343 31.0707 146.103 31.0707 143.957C31.0707 142.067 32.1629 140.506 34.3532 140.506C36.9734 140.506 37.7171 142.164 37.7171 144.456H32.831C32.8379 144.689 32.8965 144.918 33.0033 145.129C33.11 145.341 33.2627 145.53 33.4517 145.684C33.6408 145.839 33.8622 145.956 34.1022 146.028C34.3422 146.1 34.5958 146.126 34.8471 146.103C35.6712 146.072 36.4723 145.843 37.171 145.438L37.2 146.807ZM35.9567 143.27C35.9044 142.443 35.4919 141.729 34.4694 141.729C34.2504 141.725 34.0328 141.762 33.8298 141.838C33.6269 141.914 33.443 142.028 33.2895 142.172C33.136 142.316 33.0161 142.488 32.9373 142.677C32.8584 142.866 32.8223 143.067 32.831 143.27H35.9567Z" fill="url(#paint6_linear_99_234)"/>
<path d="M39.3845 147.177V140.64H41.0229V142.11C41.112 141.684 41.3491 141.296 41.6982 141.006C42.0473 140.715 42.4894 140.538 42.9575 140.5C43.1527 140.491 43.3482 140.508 43.5385 140.549V142.261C43.2773 142.161 42.9958 142.115 42.7135 142.126C41.2204 142.126 41.2204 143.849 41.2204 144.783V147.188L39.3845 147.177Z" fill="url(#paint7_linear_99_234)"/>
<path d="M49.5342 147.177V143.683C49.5342 142.883 49.5342 141.81 48.3316 141.81C47.0012 141.81 46.7165 143.141 46.7165 143.983V147.177H44.869V140.64H46.6119V141.531H46.6468C46.9042 141.187 47.2534 140.91 47.6606 140.728C48.0677 140.545 48.519 140.463 48.9707 140.489C50.6439 140.489 51.3701 141.563 51.3701 143.05V147.177H49.5342Z" fill="url(#paint8_linear_99_234)"/>
<path d="M64.663 147.059C63.9493 147.221 63.2189 147.311 62.4843 147.327C59.3818 147.327 57.2148 145.894 57.2148 142.899C57.2148 139.904 59.225 138.166 62.4843 138.166C63.2235 138.17 63.9565 138.292 64.6513 138.525L64.5119 140.033C63.8799 139.7 63.1594 139.536 62.432 139.561C60.4625 139.561 59.225 140.951 59.225 142.781C59.225 144.611 60.4276 145.937 62.4843 145.937C63.2024 145.948 63.9155 145.825 64.5816 145.578L64.663 147.059Z" fill="url(#paint9_linear_99_234)"/>
<path d="M69.334 147.327C68.8445 147.356 68.3539 147.288 67.8945 147.13C67.435 146.971 67.017 146.725 66.6676 146.406C66.3183 146.088 66.0456 145.706 65.8674 145.284C65.6891 144.861 65.6093 144.409 65.6332 143.957C65.6332 143.048 66.0237 142.178 66.7188 141.535C67.414 140.893 68.3568 140.532 69.3398 140.532C70.3229 140.532 71.2657 140.893 71.9608 141.535C72.656 142.178 73.0465 143.048 73.0465 143.957C73.0705 144.41 72.9904 144.863 72.8115 145.286C72.6325 145.709 72.3588 146.092 72.0082 146.411C71.6576 146.729 71.2381 146.975 70.7772 147.133C70.3163 147.291 69.8245 147.357 69.334 147.327ZM71.1234 143.747C71.1234 142.749 70.5425 141.81 69.334 141.81C68.1256 141.81 67.5562 142.77 67.5562 143.747C67.5562 144.821 67.9339 146.018 69.334 146.018C70.7342 146.018 71.1234 144.837 71.1234 143.747Z" fill="url(#paint10_linear_99_234)"/>
<path d="M79.3211 147.177V143.683C79.3211 142.883 79.3211 141.81 78.1126 141.81C76.788 141.81 76.4975 143.141 76.4975 143.983V147.177H74.6558V140.64H76.3988V141.531H76.4336C76.691 141.187 77.0403 140.91 77.4474 140.728C77.8546 140.545 78.3059 140.463 78.7575 140.489C80.4308 140.489 81.157 141.563 81.157 143.05V147.177H79.3211Z" fill="url(#paint11_linear_99_234)"/>
<path d="M82.9464 145.653C83.5075 145.927 84.1303 146.076 84.7649 146.087C85.2355 146.087 85.9733 145.921 85.9733 145.288C85.9733 144.005 82.7721 144.88 82.7721 142.513C82.7721 141.107 84.1084 140.489 85.5492 140.489C86.2234 140.492 86.8947 140.571 87.5478 140.726L87.4258 142.008C86.9014 141.821 86.3437 141.727 85.7816 141.729C85.2878 141.729 84.6952 141.896 84.6952 142.448C84.6952 143.49 87.908 142.835 87.908 145.196C87.908 146.721 86.4207 147.343 84.9334 147.343C84.2268 147.335 83.524 147.245 82.8418 147.075L82.9464 145.653Z" fill="url(#paint12_linear_99_234)"/>
<path d="M93.7003 147.177C93.2567 147.284 92.7993 147.335 92.3409 147.327C92.0359 147.351 91.729 147.312 91.4421 147.213C91.1552 147.115 90.8954 146.959 90.6812 146.757C90.467 146.555 90.3037 146.312 90.2029 146.045C90.1021 145.778 90.0664 145.494 90.0983 145.213V141.88H88.7388V140.64H90.0983V139.325L91.9458 138.788V140.645H93.5783V141.885H91.9458V144.939C91.9458 145.476 92.1026 146.012 92.8056 146.012C93.0995 146.019 93.3901 145.955 93.6481 145.824L93.7003 147.177Z" fill="url(#paint13_linear_99_234)"/>
<path d="M95.0657 147.177V140.64H96.704V142.11C96.7932 141.684 97.0303 141.296 97.3794 141.006C97.7285 140.715 98.1706 140.538 98.6387 140.5C98.8338 140.491 99.0294 140.508 99.2197 140.549V142.261C98.9587 142.16 98.677 142.115 98.3947 142.126C96.9016 142.126 96.9016 143.849 96.9016 144.783V147.188L95.0657 147.177Z" fill="url(#paint14_linear_99_234)"/>
<path d="M105.308 147.177V146.286H105.279C105.002 146.611 104.649 146.873 104.247 147.053C103.844 147.234 103.403 147.327 102.955 147.327C101.276 147.327 100.544 146.254 100.544 144.767V140.64H102.392V144.123C102.392 144.933 102.392 146.018 103.589 146.018C104.925 146.018 105.21 144.676 105.21 143.839V140.618H107.051V147.155L105.308 147.177Z" fill="url(#paint15_linear_99_234)"/>
<path d="M113.994 147.112C113.398 147.271 112.778 147.343 112.158 147.327C109.834 147.327 108.672 145.873 108.672 143.876C108.672 141.976 109.881 140.489 112.094 140.489C112.699 140.476 113.303 140.548 113.884 140.704L113.709 142.051C113.322 141.879 112.896 141.796 112.466 141.81C111.304 141.81 110.595 142.642 110.595 143.876C110.595 145.111 111.217 146.023 112.501 146.023C112.991 146.003 113.472 145.895 113.918 145.706L113.994 147.112Z" fill="url(#paint16_linear_99_234)"/>
<path d="M119.595 147.177C119.149 147.284 118.69 147.335 118.229 147.327C116.789 147.327 115.993 146.506 115.993 145.213V141.88H114.633V140.64H115.993V139.325L117.84 138.788V140.645H119.473V141.885H117.84V144.939C117.84 145.476 117.997 146.012 118.7 146.012C118.994 146.019 119.284 145.955 119.542 145.824L119.595 147.177Z" fill="url(#paint17_linear_99_234)"/>
<path d="M120.931 139.427V137.817H122.778V139.427H120.931ZM120.931 147.155V140.64H122.778V147.177L120.931 147.155Z" fill="url(#paint18_linear_99_234)"/>
<path d="M128.158 147.327C127.668 147.356 127.177 147.29 126.717 147.131C126.257 146.973 125.838 146.727 125.488 146.409C125.138 146.09 124.865 145.707 124.686 145.285C124.508 144.862 124.428 144.41 124.452 143.957C124.452 143.507 124.548 143.062 124.734 142.646C124.92 142.231 125.193 141.853 125.537 141.535C125.881 141.217 126.29 140.965 126.74 140.793C127.19 140.621 127.672 140.532 128.158 140.532C128.645 140.532 129.127 140.621 129.577 140.793C130.027 140.965 130.435 141.217 130.779 141.535C131.124 141.853 131.397 142.231 131.583 142.646C131.769 143.062 131.865 143.507 131.865 143.957C131.889 144.41 131.809 144.862 131.63 145.285C131.452 145.707 131.179 146.09 130.829 146.409C130.479 146.727 130.06 146.973 129.6 147.131C129.14 147.29 128.648 147.356 128.158 147.327ZM129.942 143.747C129.942 142.749 129.361 141.81 128.158 141.81C126.956 141.81 126.381 142.77 126.381 143.747C126.381 144.821 126.752 146.018 128.158 146.018C129.564 146.018 129.942 144.837 129.942 143.747Z" fill="url(#paint19_linear_99_234)"/>
<path d="M138.14 147.177V143.683C138.14 142.883 138.14 141.81 136.931 141.81C135.606 141.81 135.322 143.141 135.322 143.983V147.177H133.474V140.64H135.217V141.531H135.252C135.509 141.187 135.859 140.91 136.266 140.728C136.673 140.545 137.124 140.463 137.576 140.489C139.249 140.489 139.975 141.563 139.975 143.05V147.177H138.14Z" fill="url(#paint20_linear_99_234)"/>
<path d="M146.796 147.177V141.88H145.437V140.64H146.796V139.727C146.796 138.412 147.592 137.5 149.05 137.5C149.502 137.502 149.952 137.551 150.392 137.645L150.247 139.046C150.01 138.903 149.734 138.825 149.451 138.82C148.835 138.82 148.632 139.319 148.632 139.824V140.64H150.247V141.88H148.632V147.177H146.796Z" fill="url(#paint21_linear_99_234)"/>
<path d="M154.895 147.327C154.405 147.356 153.915 147.288 153.455 147.13C152.996 146.971 152.578 146.725 152.229 146.406C151.879 146.088 151.607 145.706 151.428 145.284C151.25 144.861 151.17 144.409 151.194 143.957C151.194 143.048 151.585 142.178 152.28 141.535C152.975 140.893 153.918 140.532 154.901 140.532C155.884 140.532 156.827 140.893 157.522 141.535C158.217 142.178 158.608 143.048 158.608 143.957C158.632 144.41 158.551 144.863 158.372 145.286C158.194 145.709 157.92 146.092 157.569 146.411C157.219 146.729 156.799 146.975 156.338 147.133C155.877 147.291 155.386 147.357 154.895 147.327ZM156.684 143.747C156.684 142.749 156.103 141.81 154.895 141.81C153.687 141.81 153.152 142.77 153.152 143.747C153.152 144.821 153.524 146.018 154.895 146.018C156.266 146.018 156.684 144.837 156.684 143.747Z" fill="url(#paint22_linear_99_234)"/>
<path d="M160.257 147.177V140.64H161.896V142.11H161.925C162.014 141.684 162.251 141.296 162.6 141.006C162.949 140.715 163.391 140.538 163.86 140.5C164.055 140.491 164.25 140.508 164.441 140.549V142.261C164.179 142.162 163.898 142.116 163.616 142.126C162.122 142.126 162.122 143.849 162.122 144.783V147.188L160.257 147.177Z" fill="url(#paint23_linear_99_234)"/>
<path d="M176.048 143.49H174.015V142.11H177.867V146.882C176.861 147.16 175.82 147.313 174.77 147.338C171.668 147.338 169.501 145.905 169.501 142.91C169.501 139.915 171.511 138.176 174.77 138.176C175.722 138.166 176.67 138.287 177.582 138.536L177.46 140.044C176.679 139.732 175.837 139.571 174.985 139.572C174.519 139.541 174.051 139.602 173.612 139.753C173.174 139.904 172.776 140.14 172.446 140.446C172.115 140.751 171.859 141.119 171.696 141.524C171.533 141.929 171.466 142.361 171.499 142.792C171.499 144.595 172.702 145.948 174.759 145.948C175.182 145.952 175.605 145.912 176.019 145.83L176.048 143.49Z" fill="url(#paint24_linear_99_234)"/>
<path d="M185.6 146.807C184.858 147.18 184.022 147.365 183.177 147.343C180.853 147.343 179.47 146.103 179.47 143.957C179.47 142.067 180.563 140.506 182.759 140.506C185.379 140.506 186.123 142.164 186.123 144.456H181.231C181.239 144.689 181.299 144.918 181.407 145.129C181.515 145.34 181.668 145.528 181.857 145.682C182.046 145.837 182.268 145.954 182.508 146.026C182.748 146.098 183.001 146.125 183.253 146.103C184.077 146.074 184.879 145.845 185.577 145.438L185.6 146.807ZM184.362 143.27C184.31 142.443 183.892 141.729 182.869 141.729C181.847 141.729 181.312 142.395 181.231 143.27H184.362Z" fill="url(#paint25_linear_99_234)"/>
<path d="M192.391 147.177V143.683C192.391 142.883 192.391 141.81 191.189 141.81C189.864 141.81 189.574 143.141 189.574 143.983V147.177H187.744V140.64H189.487V141.531H189.521C189.779 141.187 190.129 140.911 190.536 140.729C190.943 140.546 191.394 140.464 191.845 140.489C193.519 140.489 194.251 141.563 194.251 143.05V147.177H192.391Z" fill="url(#paint26_linear_99_234)"/>
<path d="M201.995 146.807C201.251 147.18 200.413 147.365 199.567 147.343C197.243 147.343 195.866 146.103 195.866 143.957C195.866 142.067 196.958 140.506 199.148 140.506C201.769 140.506 202.512 142.164 202.512 144.456H197.62C197.627 144.689 197.686 144.918 197.793 145.129C197.899 145.341 198.052 145.53 198.241 145.684C198.43 145.839 198.651 145.956 198.891 146.028C199.132 146.1 199.385 146.126 199.636 146.103C200.46 146.072 201.262 145.843 201.96 145.438L201.995 146.807ZM200.752 143.27C200.7 142.443 200.287 141.729 199.264 141.729C199.046 141.725 198.828 141.762 198.625 141.838C198.422 141.914 198.238 142.028 198.085 142.172C197.931 142.316 197.811 142.488 197.732 142.677C197.653 142.866 197.617 143.067 197.626 143.27H200.752Z" fill="url(#paint27_linear_99_234)"/>
<path d="M204.18 147.177V140.64H205.818V142.11C205.907 141.684 206.144 141.296 206.493 141.006C206.842 140.715 207.285 140.538 207.753 140.5C207.948 140.491 208.143 140.508 208.334 140.549V142.261C208.07 142.154 207.784 142.103 207.497 142.11C206.004 142.11 206.004 143.833 206.004 144.767V147.172L204.18 147.177Z" fill="url(#paint28_linear_99_234)"/>
<path d="M213.981 147.177C213.932 146.853 213.903 146.527 213.894 146.2C213.667 146.547 213.346 146.834 212.963 147.032C212.58 147.229 212.148 147.331 211.709 147.327C210.46 147.327 209.234 146.635 209.234 145.384C209.21 144.996 209.312 144.61 209.529 144.277C209.746 143.944 210.066 143.679 210.448 143.517C211.202 143.236 212.012 143.108 212.825 143.141H213.841C213.841 142.067 213.33 141.729 212.244 141.729C211.452 141.746 210.686 141.996 210.059 142.443L210.001 140.983C210.779 140.665 211.619 140.497 212.47 140.489C214.631 140.489 215.52 141.311 215.52 143.243V144.075C215.52 144.74 215.52 145.239 215.549 145.685C215.578 146.13 215.584 146.646 215.625 147.15L213.981 147.177ZM213.022 144.155C212.197 144.155 210.971 144.284 210.971 145.288C210.971 145.824 211.482 146.087 212.133 146.087C212.382 146.093 212.629 146.042 212.853 145.94C213.076 145.839 213.27 145.688 213.417 145.502C213.706 145.106 213.842 144.632 213.806 144.155H213.022Z" fill="url(#paint29_linear_99_234)"/>
<path d="M217.531 147.177V137.65H219.378V147.177H217.531Z" fill="url(#paint30_linear_99_234)"/>
<path d="M232.7 147.059C231.988 147.221 231.26 147.311 230.527 147.327C227.419 147.327 225.252 145.894 225.252 142.899C225.252 139.904 227.268 138.166 230.527 138.166C231.266 138.17 231.999 138.292 232.694 138.525L232.555 140.033C231.922 139.7 231.202 139.537 230.475 139.561C228.505 139.561 227.268 140.951 227.268 142.781C227.268 144.611 228.47 145.937 230.527 145.937C231.245 145.948 231.958 145.825 232.624 145.578L232.7 147.059Z" fill="url(#paint31_linear_99_234)"/>
<path d="M237.377 147.327C236.887 147.356 236.397 147.288 235.937 147.13C235.478 146.971 235.06 146.725 234.71 146.406C234.361 146.088 234.088 145.706 233.91 145.284C233.732 144.861 233.652 144.409 233.676 143.957C233.676 143.048 234.066 142.178 234.762 141.535C235.457 140.893 236.4 140.532 237.383 140.532C238.366 140.532 239.309 140.893 240.004 141.535C240.699 142.178 241.089 143.048 241.089 143.957C241.113 144.41 241.033 144.863 240.854 145.286C240.675 145.709 240.402 146.092 240.051 146.411C239.7 146.729 239.281 146.975 238.82 147.133C238.359 147.291 237.867 147.357 237.377 147.327ZM239.166 143.747C239.166 142.749 238.585 141.81 237.377 141.81C236.168 141.81 235.599 142.77 235.599 143.747C235.599 144.821 235.971 146.018 237.377 146.018C238.783 146.018 239.166 144.837 239.166 143.747Z" fill="url(#paint32_linear_99_234)"/>
<path d="M247.358 147.177V143.683C247.358 142.883 247.358 141.81 246.155 141.81C244.831 141.81 244.54 143.141 244.54 143.983V147.177H242.693V140.64H244.436V141.531H244.471C244.728 141.187 245.078 140.911 245.485 140.729C245.892 140.546 246.343 140.464 246.794 140.489C248.468 140.489 249.2 141.563 249.2 143.05V147.177H247.358Z" fill="url(#paint33_linear_99_234)"/>
<path d="M255.469 147.177C255.025 147.284 254.567 147.335 254.109 147.327C252.668 147.327 251.872 146.506 251.872 145.213V141.88H250.49V140.64H251.855V139.325L253.702 138.788V140.645H255.329V141.885H253.702V144.939C253.702 145.476 253.853 146.012 254.556 146.012C254.85 146.019 255.141 145.955 255.399 145.824L255.469 147.177Z" fill="url(#paint34_linear_99_234)"/>
<path d="M256.834 147.177V140.64H258.472V142.11C258.562 141.685 258.8 141.297 259.149 141.007C259.497 140.716 259.939 140.539 260.407 140.5C260.602 140.491 260.798 140.507 260.988 140.549V142.261C260.729 142.161 260.449 142.115 260.169 142.126C258.676 142.126 258.676 143.849 258.676 144.783V147.188L256.834 147.177Z" fill="url(#paint35_linear_99_234)"/>
<path d="M266.635 147.177C266.586 146.853 266.557 146.527 266.548 146.2C266.322 146.548 266.001 146.835 265.618 147.032C265.235 147.23 264.802 147.332 264.363 147.327C263.114 147.327 261.894 146.635 261.894 145.384C261.87 144.996 261.972 144.61 262.189 144.277C262.406 143.944 262.726 143.679 263.108 143.517C263.862 143.235 264.673 143.107 265.485 143.141H266.496C266.496 142.067 265.984 141.729 264.904 141.729C264.112 141.745 263.346 141.995 262.719 142.443L262.655 140.983C263.435 140.665 264.277 140.497 265.13 140.489C267.286 140.489 268.18 141.311 268.18 143.243V144.075C268.18 144.74 268.18 145.239 268.209 145.685C268.238 146.13 268.244 146.646 268.285 147.15L266.635 147.177ZM265.671 144.155C264.846 144.155 263.625 144.284 263.625 145.288C263.625 145.824 264.137 146.087 264.787 146.087C265.037 146.093 265.284 146.042 265.507 145.94C265.731 145.839 265.924 145.688 266.071 145.502C266.362 145.107 266.499 144.632 266.461 144.155H265.671Z" fill="url(#paint36_linear_99_234)"/>
<path d="M275.019 147.112C274.422 147.271 273.803 147.343 273.183 147.327C270.859 147.327 269.697 145.873 269.697 143.876C269.697 141.976 270.911 140.489 273.125 140.489C273.729 140.476 274.333 140.548 274.914 140.704L274.74 142.051C274.352 141.879 273.926 141.796 273.496 141.81C272.334 141.81 271.626 142.642 271.626 143.876C271.626 145.111 272.247 146.023 273.531 146.023C274.021 146.003 274.503 145.895 274.949 145.706L275.019 147.112Z" fill="url(#paint37_linear_99_234)"/>
<path d="M280.619 147.177C280.174 147.284 279.714 147.335 279.254 147.327C277.813 147.327 277.017 146.506 277.017 145.213V141.88H275.658V140.64H277.017V139.325L278.865 138.788V140.645H280.497V141.885H278.865V144.939C278.865 145.476 279.021 146.012 279.724 146.012C280.018 146.019 280.309 145.955 280.567 145.824L280.619 147.177Z" fill="url(#paint38_linear_99_234)"/>
<path d="M281.979 139.427V137.817H283.826V139.427H281.979ZM281.979 147.155V140.64H283.826V147.177L281.979 147.155Z" fill="url(#paint39_linear_99_234)"/>
<path d="M290.577 147.177V143.683C290.577 142.883 290.577 141.81 289.369 141.81C288.044 141.81 287.759 143.141 287.759 143.983V147.177H285.929V140.64H287.672V141.531H287.707C287.965 141.187 288.314 140.91 288.721 140.728C289.128 140.545 289.579 140.463 290.031 140.489C291.704 140.489 292.431 141.563 292.431 143.05V147.177H290.577Z" fill="url(#paint40_linear_99_234)"/>
<path d="M299.129 146.136C298.891 146.469 298.564 146.74 298.179 146.922C297.794 147.105 297.365 147.192 296.933 147.177C294.842 147.177 294.028 145.631 294.028 143.876C294.028 142.309 294.911 140.49 297.02 140.49C297.452 140.458 297.885 140.539 298.27 140.723C298.655 140.907 298.977 141.187 299.199 141.531V140.64H300.942V146.544C300.942 148.315 300.169 149.995 297.206 149.995C296.363 150 295.527 149.849 294.749 149.549L294.905 148.105C295.545 148.424 296.249 148.618 296.974 148.674C299.001 148.674 299.106 147.263 299.106 146.136H299.129ZM299.164 143.839C299.164 142.722 298.693 141.81 297.619 141.81C296.37 141.81 295.969 142.883 295.969 143.876C295.969 144.767 296.474 145.857 297.543 145.857C298.612 145.857 299.164 144.933 299.164 143.839Z" fill="url(#paint41_linear_99_234)"/>
</g>
</g>
<defs>
<linearGradient id="paint0_linear_99_234" x1="154.171" y1="49.9846" x2="225.821" y2="49.9846" gradientUnits="userSpaceOnUse">
<stop stop-color="#29235C"/>
<stop offset="0.63" stop-color="#3AAA35"/>
<stop offset="0.94" stop-color="#008D36"/>
</linearGradient>
<linearGradient id="paint1_linear_99_234" x1="119.872" y1="108.902" x2="96.7312" y2="44.8542" gradientUnits="userSpaceOnUse">
<stop offset="0.02" stop-color="#008D36"/>
<stop offset="0.52" stop-color="#29235C"/>
<stop offset="0.81" stop-color="#295261"/>
<stop offset="1" stop-color="#3AAA35"/>
</linearGradient>
<linearGradient id="paint2_linear_99_234" x1="130.918" y1="58.929" x2="167.542" y2="58.929" gradientUnits="userSpaceOnUse">
<stop stop-color="#29235C"/>
<stop offset="0.75" stop-color="#008D36"/>
<stop offset="1" stop-color="#23625D"/>
</linearGradient>
<linearGradient id="paint3_linear_99_234" x1="1.39967" y1="142.744" x2="12.1536" y2="142.744" gradientUnits="userSpaceOnUse">
<stop offset="0.82" stop-color="#0D6852"/>
<stop offset="0.93" stop-color="#0D6852"/>
</linearGradient>
<linearGradient id="paint4_linear_99_234" x1="13.9317" y1="143.908" x2="21.345" y2="143.908" gradientUnits="userSpaceOnUse">
<stop offset="0.82" stop-color="#0D6852"/>
<stop offset="0.93" stop-color="#0D6852"/>
</linearGradient>
<linearGradient id="paint5_linear_99_234" x1="22.5012" y1="142.491" x2="29.4555" y2="142.491" gradientUnits="userSpaceOnUse">
<stop offset="0.82" stop-color="#0D6852"/>
<stop offset="0.93" stop-color="#0D6852"/>
</linearGradient>
<linearGradient id="paint6_linear_99_234" x1="31.0707" y1="143.908" x2="37.7171" y2="143.908" gradientUnits="userSpaceOnUse">
<stop offset="0.82" stop-color="#0D6852"/>
<stop offset="0.93" stop-color="#0D6852"/>
</linearGradient>
<linearGradient id="paint7_linear_99_234" x1="39.3845" y1="143.833" x2="43.5501" y2="143.833" gradientUnits="userSpaceOnUse">
<stop offset="0.82" stop-color="#0D6852"/>
<stop offset="0.93" stop-color="#0D6852"/>
</linearGradient>
<linearGradient id="paint8_linear_99_234" x1="44.869" y1="143.833" x2="51.3701" y2="143.833" gradientUnits="userSpaceOnUse">
<stop offset="0.82" stop-color="#0D6852"/>
<stop offset="0.93" stop-color="#0D6852"/>
</linearGradient>
<linearGradient id="paint9_linear_99_234" x1="57.2148" y1="142.749" x2="64.663" y2="142.749" gradientUnits="userSpaceOnUse">
<stop offset="0.82" stop-color="#0D6852"/>
<stop offset="0.93" stop-color="#0D6852"/>
</linearGradient>
<linearGradient id="paint10_linear_99_234" x1="65.6332" y1="143.908" x2="73.0465" y2="143.908" gradientUnits="userSpaceOnUse">
<stop offset="0.82" stop-color="#0D6852"/>
<stop offset="0.93" stop-color="#0D6852"/>
</linearGradient>
<linearGradient id="paint11_linear_99_234" x1="74.6558" y1="143.833" x2="81.157" y2="143.833" gradientUnits="userSpaceOnUse">
<stop offset="0.82" stop-color="#0D6852"/>
<stop offset="0.93" stop-color="#0D6852"/>
</linearGradient>
<linearGradient id="paint12_linear_99_234" x1="82.7721" y1="143.908" x2="87.908" y2="143.908" gradientUnits="userSpaceOnUse">
<stop offset="0.82" stop-color="#0D6852"/>
<stop offset="0.93" stop-color="#0D6852"/>
</linearGradient>
<linearGradient id="paint13_linear_99_234" x1="88.7388" y1="143.055" x2="93.7003" y2="143.055" gradientUnits="userSpaceOnUse">
<stop offset="0.82" stop-color="#0D6852"/>
<stop offset="0.93" stop-color="#0D6852"/>
</linearGradient>
<linearGradient id="paint14_linear_99_234" x1="95.0657" y1="143.833" x2="99.2255" y2="143.833" gradientUnits="userSpaceOnUse">
<stop offset="0.82" stop-color="#0D6852"/>
<stop offset="0.93" stop-color="#0D6852"/>
</linearGradient>
<linearGradient id="paint15_linear_99_234" x1="100.544" y1="143.983" x2="107.051" y2="143.983" gradientUnits="userSpaceOnUse">
<stop offset="0.82" stop-color="#0D6852"/>
<stop offset="0.93" stop-color="#0D6852"/>
</linearGradient>
<linearGradient id="paint16_linear_99_234" x1="108.666" y1="143.908" x2="113.994" y2="143.908" gradientUnits="userSpaceOnUse">
<stop offset="0.82" stop-color="#0D6852"/>
<stop offset="0.93" stop-color="#0D6852"/>
</linearGradient>
<linearGradient id="paint17_linear_99_234" x1="114.633" y1="143.055" x2="119.595" y2="143.055" gradientUnits="userSpaceOnUse">
<stop offset="0.82" stop-color="#0D6852"/>
<stop offset="0.93" stop-color="#0D6852"/>
</linearGradient>
<linearGradient id="paint18_linear_99_234" x1="120.954" y1="142.497" x2="122.802" y2="142.497" gradientUnits="userSpaceOnUse">
<stop offset="0.82" stop-color="#0D6852"/>
<stop offset="0.93" stop-color="#0D6852"/>
</linearGradient>
<linearGradient id="paint19_linear_99_234" x1="124.452" y1="143.908" x2="131.865" y2="143.908" gradientUnits="userSpaceOnUse">
<stop offset="0.82" stop-color="#0D6852"/>
<stop offset="0.93" stop-color="#0D6852"/>
</linearGradient>
<linearGradient id="paint20_linear_99_234" x1="133.474" y1="143.833" x2="139.975" y2="143.833" gradientUnits="userSpaceOnUse">
<stop offset="0.82" stop-color="#0D6852"/>
<stop offset="0.93" stop-color="#0D6852"/>
</linearGradient>
<linearGradient id="paint21_linear_99_234" x1="145.437" y1="142.336" x2="150.392" y2="142.336" gradientUnits="userSpaceOnUse">
<stop offset="0.82" stop-color="#0D6852"/>
<stop offset="0.93" stop-color="#0D6852"/>
</linearGradient>
<linearGradient id="paint22_linear_99_234" x1="151.194" y1="143.908" x2="158.608" y2="143.908" gradientUnits="userSpaceOnUse">
<stop offset="0.82" stop-color="#0D6852"/>
<stop offset="0.93" stop-color="#0D6852"/>
</linearGradient>
<linearGradient id="paint23_linear_99_234" x1="160.257" y1="143.833" x2="164.423" y2="143.833" gradientUnits="userSpaceOnUse">
<stop offset="0.82" stop-color="#0D6852"/>
<stop offset="0.93" stop-color="#0D6852"/>
</linearGradient>
<linearGradient id="paint24_linear_99_234" x1="169.518" y1="142.749" x2="177.884" y2="142.749" gradientUnits="userSpaceOnUse">
<stop offset="0.82" stop-color="#0D6852"/>
<stop offset="0.93" stop-color="#0D6852"/>
</linearGradient>
<linearGradient id="paint25_linear_99_234" x1="179.47" y1="143.908" x2="186.123" y2="143.908" gradientUnits="userSpaceOnUse">
<stop offset="0.82" stop-color="#0D6852"/>
<stop offset="0.93" stop-color="#0D6852"/>
</linearGradient>
<linearGradient id="paint26_linear_99_234" x1="187.744" y1="143.833" x2="194.251" y2="143.833" gradientUnits="userSpaceOnUse">
<stop offset="0.82" stop-color="#0D6852"/>
<stop offset="0.93" stop-color="#0D6852"/>
</linearGradient>
<linearGradient id="paint27_linear_99_234" x1="195.866" y1="143.908" x2="202.512" y2="143.908" gradientUnits="userSpaceOnUse">
<stop offset="0.82" stop-color="#0D6852"/>
<stop offset="0.93" stop-color="#0D6852"/>
</linearGradient>
<linearGradient id="paint28_linear_99_234" x1="204.18" y1="143.833" x2="208.345" y2="143.833" gradientUnits="userSpaceOnUse">
<stop offset="0.82" stop-color="#0D6852"/>
<stop offset="0.93" stop-color="#0D6852"/>
</linearGradient>
<linearGradient id="paint29_linear_99_234" x1="209.211" y1="143.908" x2="215.602" y2="143.908" gradientUnits="userSpaceOnUse">
<stop offset="0.82" stop-color="#0D6852"/>
<stop offset="0.93" stop-color="#0D6852"/>
</linearGradient>
<linearGradient id="paint30_linear_99_234" x1="217.531" y1="142.416" x2="219.378" y2="142.416" gradientUnits="userSpaceOnUse">
<stop offset="0.82" stop-color="#0D6852"/>
<stop offset="0.93" stop-color="#0D6852"/>
</linearGradient>
<linearGradient id="paint31_linear_99_234" x1="225.252" y1="142.749" x2="232.7" y2="142.749" gradientUnits="userSpaceOnUse">
<stop offset="0.82" stop-color="#0D6852"/>
<stop offset="0.93" stop-color="#0D6852"/>
</linearGradient>
<linearGradient id="paint32_linear_99_234" x1="233.676" y1="143.908" x2="241.089" y2="143.908" gradientUnits="userSpaceOnUse">
<stop offset="0.82" stop-color="#0D6852"/>
<stop offset="0.93" stop-color="#0D6852"/>
</linearGradient>
<linearGradient id="paint33_linear_99_234" x1="242.693" y1="143.833" x2="249.2" y2="143.833" gradientUnits="userSpaceOnUse">
<stop offset="0.82" stop-color="#0D6852"/>
<stop offset="0.93" stop-color="#0D6852"/>
</linearGradient>
<linearGradient id="paint34_linear_99_234" x1="250.507" y1="143.055" x2="255.469" y2="143.055" gradientUnits="userSpaceOnUse">
<stop offset="0.82" stop-color="#0D6852"/>
<stop offset="0.93" stop-color="#0D6852"/>
</linearGradient>
<linearGradient id="paint35_linear_99_234" x1="256.834" y1="143.833" x2="260.994" y2="143.833" gradientUnits="userSpaceOnUse">
<stop offset="0.82" stop-color="#0D6852"/>
<stop offset="0.93" stop-color="#0D6852"/>
</linearGradient>
<linearGradient id="paint36_linear_99_234" x1="261.865" y1="143.908" x2="268.256" y2="143.908" gradientUnits="userSpaceOnUse">
<stop offset="0.82" stop-color="#0D6852"/>
<stop offset="0.93" stop-color="#0D6852"/>
</linearGradient>
<linearGradient id="paint37_linear_99_234" x1="269.685" y1="143.908" x2="275.019" y2="143.908" gradientUnits="userSpaceOnUse">
<stop offset="0.82" stop-color="#0D6852"/>
<stop offset="0.93" stop-color="#0D6852"/>
</linearGradient>
<linearGradient id="paint38_linear_99_234" x1="275.658" y1="143.055" x2="280.619" y2="143.055" gradientUnits="userSpaceOnUse">
<stop offset="0.82" stop-color="#0D6852"/>
<stop offset="0.93" stop-color="#0D6852"/>
</linearGradient>
<linearGradient id="paint39_linear_99_234" x1="281.979" y1="142.497" x2="283.826" y2="142.497" gradientUnits="userSpaceOnUse">
<stop offset="0.82" stop-color="#0D6852"/>
<stop offset="0.93" stop-color="#0D6852"/>
</linearGradient>
<linearGradient id="paint40_linear_99_234" x1="285.929" y1="143.833" x2="292.431" y2="143.833" gradientUnits="userSpaceOnUse">
<stop offset="0.82" stop-color="#0D6852"/>
<stop offset="0.93" stop-color="#0D6852"/>
</linearGradient>
<linearGradient id="paint41_linear_99_234" x1="294.046" y1="145.245" x2="301" y2="145.245" gradientUnits="userSpaceOnUse">
<stop offset="0.82" stop-color="#0D6852"/>
<stop offset="0.93" stop-color="#0D6852"/>
</linearGradient>
<clipPath id="clip0_99_234">
<rect width="301" height="150" fill="white"/>
</clipPath>
<clipPath id="clip1_99_234">
<rect width="299.6" height="12.5" fill="white" transform="translate(1.39999 137.5)"/>
</clipPath>
</defs>
</svg>
